<svg width="830" height="400" xmlns="http://www.w3.org/2000/svg" xmlns:xlink="http://www.w3.org/1999/xlink" version="1.1" baseProfile="full" viewBox="0 0 830 400">
<rect width="830" height="400" x="0" y="0" id="0" fill="#fff"></rect>
<path d="M83.5 60L83.5 330" fill="none" stroke="#E0E6F1"></path>
<path d="M193.5 60L193.5 330" fill="none" stroke="#E0E6F1"></path>
<path d="M304.5 60L304.5 330" fill="none" stroke="#E0E6F1"></path>
<path d="M415.5 60L415.5 330" fill="none" stroke="#E0E6F1"></path>
<path d="M525.5 60L525.5 330" fill="none" stroke="#E0E6F1"></path>
<path d="M636.5 60L636.5 330" fill="none" stroke="#E0E6F1"></path>
<path d="M747.5 60L747.5 330" fill="none" stroke="#E0E6F1"></path>
<path d="M83.5 330L83.5 60" fill="none" stroke="#6E7079" stroke-linecap="round"></path>
<path d="M83 330.5L78 330.5" fill="none" stroke="#6E7079"></path>
<path d="M83 276.5L78 276.5" fill="none" stroke="#6E7079"></path>
<path d="M83 222.5L78 222.5" fill="none" stroke="#6E7079"></path>
<path d="M83 168.5L78 168.5" fill="none" stroke="#6E7079"></path>
<path d="M83 114.5L78 114.5" fill="none" stroke="#6E7079"></path>
<path d="M83 60.5L78 60.5" fill="none" stroke="#6E7079"></path>
<text dominant-baseline="central" text-anchor="end" style="font-size:12px;font-family:sans-serif;" transform="translate(75 303)" fill="#6E7079">rspack</text>
<text dominant-baseline="central" text-anchor="end" style="font-size:12px;font-family:sans-serif;" transform="translate(75 249)" fill="#6E7079">vite</text>
<text dominant-baseline="central" text-anchor="end" style="font-size:12px;font-family:sans-serif;" transform="translate(75 195)" fill="#6E7079">parcel</text>
<text dominant-baseline="central" text-anchor="end" style="font-size:12px;font-family:sans-serif;" y="-6" transform="translate(75 141)" fill="#6E7079">webpack</text>
<text dominant-baseline="central" text-anchor="end" style="font-size:12px;font-family:sans-serif;" y="6" transform="translate(75 141)" fill="#6E7079">+swc</text>
<text dominant-baseline="central" text-anchor="end" style="font-size:12px;font-family:sans-serif;" transform="translate(75 87)" fill="#6E7079">webpack</text>
<text dominant-baseline="central" text-anchor="middle" style="font-size:12px;font-family:sans-serif;" y="6" transform="translate(83 338)" fill="#6E7079">0</text>
<text dominant-baseline="central" text-anchor="middle" style="font-size:12px;font-family:sans-serif;" y="6" transform="translate(193.6667 338)" fill="#6E7079">3</text>
<text dominant-baseline="central" text-anchor="middle" style="font-size:12px;font-family:sans-serif;" y="6" transform="translate(304.3333 338)" fill="#6E7079">6</text>
<text dominant-baseline="central" text-anchor="middle" style="font-size:12px;font-family:sans-serif;" y="6" transform="translate(415 338)" fill="#6E7079">9</text>
<text dominant-baseline="central" text-anchor="middle" style="font-size:12px;font-family:sans-serif;" y="6" transform="translate(525.6667 338)" fill="#6E7079">12</text>
<text dominant-baseline="central" text-anchor="middle" style="font-size:12px;font-family:sans-serif;" y="6" transform="translate(636.3333 338)" fill="#6E7079">15</text>
<text dominant-baseline="central" text-anchor="middle" style="font-size:12px;font-family:sans-serif;" y="6" transform="translate(747 338)" fill="#6E7079">18</text>
<path d="M83 282.2l47.8 0l0 12.2l-47.8 0Z" fill="#5470c6"></path>
<path d="M83 228.2l105.6 0l0 12.2l-105.6 0Z" fill="#5470c6"></path>
<path d="M83 174.2l299.1 0l0 12.2l-299.1 0Z" fill="#5470c6"></path>
<path d="M83 120.2l247.2 0l0 12.2l-247.2 0Z" fill="#5470c6"></path>
<path d="M83 66.2l369.7 0l0 12.2l-369.7 0Z" fill="#5470c6"></path>
<path d="M83 296.9l47.4 0l0 12.2l-47.4 0Z" fill="#91cc75"></path>
<path d="M83 242.9l39.1 0l0 12.2l-39.1 0Z" fill="#91cc75"></path>
<path d="M83 188.9l51 0l0 12.2l-51 0Z" fill="#91cc75"></path>
<path d="M83 134.9l243.1 0l0 12.2l-243.1 0Z" fill="#91cc75"></path>
<path d="M83 80.9l359.1 0l0 12.2l-359.1 0Z" fill="#91cc75"></path>
<path d="M83 311.6l46 0l0 12.2l-46 0Z" fill="#fac858"></path>
<path d="M83 257.6l259.1 0l0 12.2l-259.1 0Z" fill="#fac858"></path>
<path d="M83 203.6l494 0l0 12.2l-494 0Z" fill="#fac858"></path>
<path d="M83 149.6l221.8 0l0 12.2l-221.8 0Z" fill="#fac858"></path>
<path d="M83 95.6l600.6 0l0 12.2l-600.6 0Z" fill="#fac858"></path>
<text dominant-baseline="central" text-anchor="start" style="font-size:12px;font-family:sans-serif;" transform="translate(135.808 288.3247)" fill="#333" stroke="rgb(255,255,255)" stroke-width="2" paint-order="stroke" stroke-miterlimit="2">1.296</text>
<text dominant-baseline="central" text-anchor="start" style="font-size:12px;font-family:sans-serif;" transform="translate(193.6129 234.3247)" fill="#333" stroke="rgb(255,255,255)" stroke-width="2" paint-order="stroke" stroke-miterlimit="2">2.863</text>
<text dominant-baseline="central" text-anchor="start" style="font-size:12px;font-family:sans-serif;" transform="translate(387.132 180.3247)" fill="#333" stroke="rgb(255,255,255)" stroke-width="2" paint-order="stroke" stroke-miterlimit="2">8.109</text>
<text dominant-baseline="central" text-anchor="start" style="font-size:12px;font-family:sans-serif;" transform="translate(335.2293 126.3247)" fill="#333" stroke="rgb(255,255,255)" stroke-width="2" paint-order="stroke" stroke-miterlimit="2">6.702</text>
<text dominant-baseline="central" text-anchor="start" style="font-size:12px;font-family:sans-serif;" transform="translate(457.7373 72.3247)" fill="#333" stroke="rgb(255,255,255)" stroke-width="2" paint-order="stroke" stroke-miterlimit="2">10.023</text>
<text dominant-baseline="central" text-anchor="start" style="font-size:12px;font-family:sans-serif;" transform="translate(135.4391 303)" fill="#333" stroke="rgb(255,255,255)" stroke-width="2" paint-order="stroke" stroke-miterlimit="2">1.286</text>
<text dominant-baseline="central" text-anchor="start" style="font-size:12px;font-family:sans-serif;" transform="translate(127.1022 249)" fill="#333" stroke="rgb(255,255,255)" stroke-width="2" paint-order="stroke" stroke-miterlimit="2">1.06</text>
<text dominant-baseline="central" text-anchor="start" style="font-size:12px;font-family:sans-serif;" transform="translate(139.0173 195)" fill="#333" stroke="rgb(255,255,255)" stroke-width="2" paint-order="stroke" stroke-miterlimit="2">1.383</text>
<text dominant-baseline="central" text-anchor="start" style="font-size:12px;font-family:sans-serif;" transform="translate(331.0609 141)" fill="#333" stroke="rgb(255,255,255)" stroke-width="2" paint-order="stroke" stroke-miterlimit="2">6.589</text>
<text dominant-baseline="central" text-anchor="start" style="font-size:12px;font-family:sans-serif;" transform="translate(447.0764 87)" fill="#333" stroke="rgb(255,255,255)" stroke-width="2" paint-order="stroke" stroke-miterlimit="2">9.734</text>
<text dominant-baseline="central" text-anchor="start" style="font-size:12px;font-family:sans-serif;" transform="translate(133.9636 317.6753)" fill="#333" stroke="rgb(255,255,255)" stroke-width="2" paint-order="stroke" stroke-miterlimit="2">1.246</text>
<text dominant-baseline="central" text-anchor="start" style="font-size:12px;font-family:sans-serif;" transform="translate(347.0707 263.6753)" fill="#333" stroke="rgb(255,255,255)" stroke-width="2" paint-order="stroke" stroke-miterlimit="2">7.023</text>
<text dominant-baseline="central" text-anchor="start" style="font-size:12px;font-family:sans-serif;" transform="translate(582.016 209.6753)" fill="#333" stroke="rgb(255,255,255)" stroke-width="2" paint-order="stroke" stroke-miterlimit="2">13.392</text>
<text dominant-baseline="central" text-anchor="start" style="font-size:12px;font-family:sans-serif;" transform="translate(309.8129 155.6753)" fill="#333" stroke="rgb(255,255,255)" stroke-width="2" paint-order="stroke" stroke-miterlimit="2">6.013</text>
<text dominant-baseline="central" text-anchor="start" style="font-size:12px;font-family:sans-serif;" transform="translate(688.6249 101.6753)" fill="#333" stroke="rgb(255,255,255)" stroke-width="2" paint-order="stroke" stroke-miterlimit="2">16.282</text>
<path d="M-5 -5l430.2 0l0 24l-430.2 0Z" transform="translate(204.9 5)" fill="rgb(0,0,0)" fill-opacity="0" stroke="#ccc" stroke-width="0"></path>
<path d="M3.5 0L21.5 0A3.5 3.5 0 0 1 25 3.5L25 10.5A3.5 3.5 0 0 1 21.5 14L3.5 14A3.5 3.5 0 0 1 0 10.5L0 3.5A3.5 3.5 0 0 1 3.5 0" transform="translate(204.9 5)" fill="#5470c6"></path>
<text dominant-baseline="central" text-anchor="start" style="font-size:12px;font-family:sans-serif;" xml:space="preserve" x="30" y="7" transform="translate(204.9 5)" fill="#333">dev-server cold start</text>
<path d="M3.5 0L21.5 0A3.5 3.5 0 0 1 25 3.5L25 10.5A3.5 3.5 0 0 1 21.5 14L3.5 14A3.5 3.5 0 0 1 0 10.5L0 3.5A3.5 3.5 0 0 1 3.5 0" transform="translate(353.86 5)" fill="#91cc75"></path>
<text dominant-baseline="central" text-anchor="start" style="font-size:12px;font-family:sans-serif;" xml:space="preserve" x="30" y="7" transform="translate(353.86 5)" fill="#333">dev-server warm start</text>
<path d="M3.5 0L21.5 0A3.5 3.5 0 0 1 25 3.5L25 10.5A3.5 3.5 0 0 1 21.5 14L3.5 14A3.5 3.5 0 0 1 0 10.5L0 3.5A3.5 3.5 0 0 1 3.5 0" transform="translate(510.02 5)" fill="#fac858"></path>
<text dominant-baseline="central" text-anchor="start" style="font-size:12px;font-family:sans-serif;" xml:space="preserve" x="30" y="7" transform="translate(510.02 5)" fill="#333">production build</text>
</svg>