<svg width="600" height="300" xmlns="http://www.w3.org/2000/svg" xmlns:xlink="http://www.w3.org/1999/xlink" version="1.1" baseProfile="full" viewBox="0 0 600 300">
<rect width="600" height="300" x="0" y="0" id="0" fill="#100C2A"></rect>
<path d="M60.5 60L60.5 230" fill="none" stroke="#484753"></path>
<path d="M140.5 60L140.5 230" fill="none" stroke="#484753"></path>
<path d="M220.5 60L220.5 230" fill="none" stroke="#484753"></path>
<path d="M300.5 60L300.5 230" fill="none" stroke="#484753"></path>
<path d="M380.5 60L380.5 230" fill="none" stroke="#484753"></path>
<path d="M460.5 60L460.5 230" fill="none" stroke="#484753"></path>
<path d="M540.5 60L540.5 230" fill="none" stroke="#484753"></path>
<path d="M60.5 230L60.5 60" fill="none" stroke="#B9B8CE" stroke-linecap="round"></path>
<path d="M60 230.5L55 230.5" fill="none" stroke="#B9B8CE"></path>
<path d="M60 196.5L55 196.5" fill="none" stroke="#B9B8CE"></path>
<path d="M60 162.5L55 162.5" fill="none" stroke="#B9B8CE"></path>
<path d="M60 128.5L55 128.5" fill="none" stroke="#B9B8CE"></path>
<path d="M60 94.5L55 94.5" fill="none" stroke="#B9B8CE"></path>
<path d="M60 60.5L55 60.5" fill="none" stroke="#B9B8CE"></path>
<text dominant-baseline="central" text-anchor="end" style="font-size:12px;font-family:sans-serif;" transform="translate(52 213)" fill="#B9B8CE">rspack</text>
<text dominant-baseline="central" text-anchor="end" style="font-size:12px;font-family:sans-serif;" transform="translate(52 179)" fill="#B9B8CE">vite</text>
<text dominant-baseline="central" text-anchor="end" style="font-size:12px;font-family:sans-serif;" transform="translate(52 145)" fill="#B9B8CE">parcel</text>
<text dominant-baseline="central" text-anchor="end" style="font-size:12px;font-family:sans-serif;" y="-6" transform="translate(52 111)" fill="#B9B8CE">webpack</text>
<text dominant-baseline="central" text-anchor="end" style="font-size:12px;font-family:sans-serif;" y="6" transform="translate(52 111)" fill="#B9B8CE">+swc</text>
<text dominant-baseline="central" text-anchor="end" style="font-size:12px;font-family:sans-serif;" transform="translate(52 77)" fill="#B9B8CE">webpack</text>
<text dominant-baseline="central" text-anchor="middle" style="font-size:12px;font-family:sans-serif;" y="6" transform="translate(60 238)" fill="#B9B8CE">0</text>
<text dominant-baseline="central" text-anchor="middle" style="font-size:12px;font-family:sans-serif;" y="6" transform="translate(140 238)" fill="#B9B8CE">3</text>
<text dominant-baseline="central" text-anchor="middle" style="font-size:12px;font-family:sans-serif;" y="6" transform="translate(220 238)" fill="#B9B8CE">6</text>
<text dominant-baseline="central" text-anchor="middle" style="font-size:12px;font-family:sans-serif;" y="6" transform="translate(300 238)" fill="#B9B8CE">9</text>
<text dominant-baseline="central" text-anchor="middle" style="font-size:12px;font-family:sans-serif;" y="6" transform="translate(380 238)" fill="#B9B8CE">12</text>
<text dominant-baseline="central" text-anchor="middle" style="font-size:12px;font-family:sans-serif;" y="6" transform="translate(460 238)" fill="#B9B8CE">15</text>
<text dominant-baseline="central" text-anchor="middle" style="font-size:12px;font-family:sans-serif;" y="6" transform="translate(540 238)" fill="#B9B8CE">18</text>
<path d="M60 199.9l36.7 0l0 7.7l-36.7 0Z" fill="#4992ff"></path>
<path d="M60 165.9l73.4 0l0 7.7l-73.4 0Z" fill="#4992ff"></path>
<path d="M60 131.9l224.2 0l0 7.7l-224.2 0Z" fill="#4992ff"></path>
<path d="M60 97.9l179.5 0l0 7.7l-179.5 0Z" fill="#4992ff"></path>
<path d="M60 63.9l268.6 0l0 7.7l-268.6 0Z" fill="#4992ff"></path>
<path d="M60 209.2l34.6 0l0 7.7l-34.6 0Z" fill="#4992ff"></path>
<path d="M60 175.2l28.5 0l0 7.7l-28.5 0Z" fill="#4992ff"></path>
<path d="M60 141.2l166.7 0l0 7.7l-166.7 0Z" fill="#4992ff"></path>
<path d="M60 107.2l174 0l0 7.7l-174 0Z" fill="#4992ff"></path>
<path d="M60 73.2l261.1 0l0 7.7l-261.1 0Z" fill="#4992ff"></path>
<path d="M60 218.4l32.3 0l0 7.7l-32.3 0Z" fill="#7cffb2"></path>
<path d="M60 184.4l191.5 0l0 7.7l-191.5 0Z" fill="#7cffb2"></path>
<path d="M60 150.4l360.9 0l0 7.7l-360.9 0Z" fill="#7cffb2"></path>
<path d="M60 116.4l161.3 0l0 7.7l-161.3 0Z" fill="#7cffb2"></path>
<path d="M60 82.4l431 0l0 7.7l-431 0Z" fill="#7cffb2"></path>
<text dominant-baseline="central" text-anchor="start" style="font-size:12px;font-family:sans-serif;" transform="translate(101.6667 203.76)" fill="#ccc" stroke="rgb(16,12,42)" stroke-width="2" paint-order="stroke" stroke-miterlimit="2">1.375</text>
<text dominant-baseline="central" text-anchor="start" style="font-size:12px;font-family:sans-serif;" transform="translate(138.36 169.76)" fill="#ccc" stroke="rgb(16,12,42)" stroke-width="2" paint-order="stroke" stroke-miterlimit="2">2.751</text>
<text dominant-baseline="central" text-anchor="start" style="font-size:12px;font-family:sans-serif;" transform="translate(289.1867 135.76)" fill="#ccc" stroke="rgb(16,12,42)" stroke-width="2" paint-order="stroke" stroke-miterlimit="2">8.407</text>
<text dominant-baseline="central" text-anchor="start" style="font-size:12px;font-family:sans-serif;" transform="translate(244.5467 101.76)" fill="#ccc" stroke="rgb(16,12,42)" stroke-width="2" paint-order="stroke" stroke-miterlimit="2">6.733</text>
<text dominant-baseline="central" text-anchor="start" style="font-size:12px;font-family:sans-serif;" transform="translate(333.64 67.76)" fill="#ccc" stroke="rgb(16,12,42)" stroke-width="2" paint-order="stroke" stroke-miterlimit="2">10.074</text>
<text dominant-baseline="central" text-anchor="start" style="font-size:12px;font-family:sans-serif;" transform="translate(99.64 213)" fill="#ccc" stroke="rgb(16,12,42)" stroke-width="2" paint-order="stroke" stroke-miterlimit="2">1.299</text>
<text dominant-baseline="central" text-anchor="start" style="font-size:12px;font-family:sans-serif;" transform="translate(93.48 179)" fill="#ccc" stroke="rgb(16,12,42)" stroke-width="2" paint-order="stroke" stroke-miterlimit="2">1.068</text>
<text dominant-baseline="central" text-anchor="start" style="font-size:12px;font-family:sans-serif;" transform="translate(231.7467 145)" fill="#ccc" stroke="rgb(16,12,42)" stroke-width="2" paint-order="stroke" stroke-miterlimit="2">6.253</text>
<text dominant-baseline="central" text-anchor="start" style="font-size:12px;font-family:sans-serif;" transform="translate(239.0267 111)" fill="#ccc" stroke="rgb(16,12,42)" stroke-width="2" paint-order="stroke" stroke-miterlimit="2">6.526</text>
<text dominant-baseline="central" text-anchor="start" style="font-size:12px;font-family:sans-serif;" transform="translate(326.12 77)" fill="#ccc" stroke="rgb(16,12,42)" stroke-width="2" paint-order="stroke" stroke-miterlimit="2">9.792</text>
<text dominant-baseline="central" text-anchor="start" style="font-size:12px;font-family:sans-serif;" transform="translate(97.32 222.24)" fill="#ccc" stroke="rgb(16,12,42)" stroke-width="2" paint-order="stroke" stroke-miterlimit="2">1.212</text>
<text dominant-baseline="central" text-anchor="start" style="font-size:12px;font-family:sans-serif;" transform="translate(256.52 188.24)" fill="#ccc" stroke="rgb(16,12,42)" stroke-width="2" paint-order="stroke" stroke-miterlimit="2">7.182</text>
<text dominant-baseline="central" text-anchor="start" style="font-size:12px;font-family:sans-serif;" transform="translate(425.9067 154.24)" fill="#ccc" stroke="rgb(16,12,42)" stroke-width="2" paint-order="stroke" stroke-miterlimit="2">13.534</text>
<text dominant-baseline="central" text-anchor="start" style="font-size:12px;font-family:sans-serif;" transform="translate(226.3067 120.24)" fill="#ccc" stroke="rgb(16,12,42)" stroke-width="2" paint-order="stroke" stroke-miterlimit="2">6.049</text>
<text dominant-baseline="central" text-anchor="start" style="font-size:12px;font-family:sans-serif;" transform="translate(496.04 86.24)" fill="#ccc" stroke="rgb(16,12,42)" stroke-width="2" paint-order="stroke" stroke-miterlimit="2">16.164</text>
<path d="M-5 -5l274 0l0 24l-274 0Z" transform="translate(167.98 5)" fill="rgb(0,0,0)" fill-opacity="0" stroke="#ccc" stroke-width="0"></path>
<path d="M3.5 0L21.5 0A3.5 3.5 0 0 1 25 3.5L25 10.5A3.5 3.5 0 0 1 21.5 14L3.5 14A3.5 3.5 0 0 1 0 10.5L0 3.5A3.5 3.5 0 0 1 3.5 0" transform="translate(167.98 5)" fill="#4992ff"></path>
<text dominant-baseline="central" text-anchor="start" style="font-size:12px;font-family:sans-serif;" xml:space="preserve" x="30" y="7" transform="translate(167.98 5)" fill="#B9B8CE">dev-server cold start</text>
<path d="M3.5 0L21.5 0A3.5 3.5 0 0 1 25 3.5L25 10.5A3.5 3.5 0 0 1 21.5 14L3.5 14A3.5 3.5 0 0 1 0 10.5L0 3.5A3.5 3.5 0 0 1 3.5 0" transform="translate(316.94 5)" fill="#7cffb2"></path>
<text dominant-baseline="central" text-anchor="start" style="font-size:12px;font-family:sans-serif;" xml:space="preserve" x="30" y="7" transform="translate(316.94 5)" fill="#B9B8CE">production build</text>
</svg>