<svg width="830" height="400" xmlns="http://www.w3.org/2000/svg" xmlns:xlink="http://www.w3.org/1999/xlink" version="1.1" baseProfile="full" viewBox="0 0 830 400">
<rect width="830" height="400" x="0" y="0" id="0" fill="#fff"></rect>
<path d="M83.5 60L83.5 330" fill="none" stroke="#E0E6F1"></path>
<path d="M193.5 60L193.5 330" fill="none" stroke="#E0E6F1"></path>
<path d="M304.5 60L304.5 330" fill="none" stroke="#E0E6F1"></path>
<path d="M415.5 60L415.5 330" fill="none" stroke="#E0E6F1"></path>
<path d="M525.5 60L525.5 330" fill="none" stroke="#E0E6F1"></path>
<path d="M636.5 60L636.5 330" fill="none" stroke="#E0E6F1"></path>
<path d="M747.5 60L747.5 330" fill="none" stroke="#E0E6F1"></path>
<path d="M83.5 330L83.5 60" fill="none" stroke="#6E7079" stroke-linecap="round"></path>
<path d="M83 330.5L78 330.5" fill="none" stroke="#6E7079"></path>
<path d="M83 276.5L78 276.5" fill="none" stroke="#6E7079"></path>
<path d="M83 222.5L78 222.5" fill="none" stroke="#6E7079"></path>
<path d="M83 168.5L78 168.5" fill="none" stroke="#6E7079"></path>
<path d="M83 114.5L78 114.5" fill="none" stroke="#6E7079"></path>
<path d="M83 60.5L78 60.5" fill="none" stroke="#6E7079"></path>
<text dominant-baseline="central" text-anchor="end" style="font-size:12px;font-family:sans-serif;" transform="translate(75 303)" fill="#6E7079">rspack</text>
<text dominant-baseline="central" text-anchor="end" style="font-size:12px;font-family:sans-serif;" transform="translate(75 249)" fill="#6E7079">vite</text>
<text dominant-baseline="central" text-anchor="end" style="font-size:12px;font-family:sans-serif;" transform="translate(75 195)" fill="#6E7079">parcel</text>
<text dominant-baseline="central" text-anchor="end" style="font-size:12px;font-family:sans-serif;" y="-6" transform="translate(75 141)" fill="#6E7079">webpack</text>
<text dominant-baseline="central" text-anchor="end" style="font-size:12px;font-family:sans-serif;" y="6" transform="translate(75 141)" fill="#6E7079">+swc</text>
<text dominant-baseline="central" text-anchor="end" style="font-size:12px;font-family:sans-serif;" transform="translate(75 87)" fill="#6E7079">webpack</text>
<text dominant-baseline="central" text-anchor="middle" style="font-size:12px;font-family:sans-serif;" y="6" transform="translate(83 338)" fill="#6E7079">0</text>
<text dominant-baseline="central" text-anchor="middle" style="font-size:12px;font-family:sans-serif;" y="6" transform="translate(193.6667 338)" fill="#6E7079">5</text>
<text dominant-baseline="central" text-anchor="middle" style="font-size:12px;font-family:sans-serif;" y="6" transform="translate(304.3333 338)" fill="#6E7079">10</text>
<text dominant-baseline="central" text-anchor="middle" style="font-size:12px;font-family:sans-serif;" y="6" transform="translate(415 338)" fill="#6E7079">15</text>
<text dominant-baseline="central" text-anchor="middle" style="font-size:12px;font-family:sans-serif;" y="6" transform="translate(525.6667 338)" fill="#6E7079">20</text>
<text dominant-baseline="central" text-anchor="middle" style="font-size:12px;font-family:sans-serif;" y="6" transform="translate(636.3333 338)" fill="#6E7079">25</text>
<text dominant-baseline="central" text-anchor="middle" style="font-size:12px;font-family:sans-serif;" y="6" transform="translate(747 338)" fill="#6E7079">30</text>
<path d="M83 282.2l92.6 0l0 12.2l-92.6 0Z" fill="#5470c6"></path>
<path d="M83 228.2l168.7 0l0 12.2l-168.7 0Z" fill="#5470c6"></path>
<path d="M83 174.2l323.6 0l0 12.2l-323.6 0Z" fill="#5470c6"></path>
<path d="M83 120.2l244.8 0l0 12.2l-244.8 0Z" fill="#5470c6"></path>
<path d="M83 66.2l356.2 0l0 12.2l-356.2 0Z" fill="#5470c6"></path>
<path d="M83 296.9l60.1 0l0 12.2l-60.1 0Z" fill="#91cc75"></path>
<path d="M83 242.9l34.1 0l0 12.2l-34.1 0Z" fill="#91cc75"></path>
<path d="M83 188.9l36 0l0 12.2l-36 0Z" fill="#91cc75"></path>
<path d="M83 134.9l216.2 0l0 12.2l-216.2 0Z" fill="#91cc75"></path>
<path d="M83 80.9l330.6 0l0 12.2l-330.6 0Z" fill="#91cc75"></path>
<path d="M83 311.6l61.3 0l0 12.2l-61.3 0Z" fill="#fac858"></path>
<path d="M83 257.6l266.4 0l0 12.2l-266.4 0Z" fill="#fac858"></path>
<path d="M83 203.6l493.5 0l0 12.2l-493.5 0Z" fill="#fac858"></path>
<path d="M83 149.6l208.1 0l0 12.2l-208.1 0Z" fill="#fac858"></path>
<path d="M83 95.6l627.7 0l0 12.2l-627.7 0Z" fill="#fac858"></path>
<text dominant-baseline="central" text-anchor="start" style="font-size:12px;font-family:sans-serif;" transform="translate(180.5616 288.3247)" fill="#333" stroke="rgb(255,255,255)" stroke-width="2" paint-order="stroke" stroke-miterlimit="2">4.182</text>
<text dominant-baseline="central" text-anchor="start" style="font-size:12px;font-family:sans-serif;" transform="translate(256.656 234.3247)" fill="#333" stroke="rgb(255,255,255)" stroke-width="2" paint-order="stroke" stroke-miterlimit="2">7.62</text>
<text dominant-baseline="central" text-anchor="start" style="font-size:12px;font-family:sans-serif;" transform="translate(411.6336 180.3247)" fill="#333" stroke="rgb(255,255,255)" stroke-width="2" paint-order="stroke" stroke-miterlimit="2">14.622</text>
<text dominant-baseline="central" text-anchor="start" style="font-size:12px;font-family:sans-serif;" transform="translate(332.7725 126.3247)" fill="#333" stroke="rgb(255,255,255)" stroke-width="2" paint-order="stroke" stroke-miterlimit="2">11.059</text>
<text dominant-baseline="central" text-anchor="start" style="font-size:12px;font-family:sans-serif;" transform="translate(444.2139 72.3247)" fill="#333" stroke="rgb(255,255,255)" stroke-width="2" paint-order="stroke" stroke-miterlimit="2">16.094</text>
<text dominant-baseline="central" text-anchor="start" style="font-size:12px;font-family:sans-serif;" transform="translate(148.1141 303)" fill="#333" stroke="rgb(255,255,255)" stroke-width="2" paint-order="stroke" stroke-miterlimit="2">2.716</text>
<text dominant-baseline="central" text-anchor="start" style="font-size:12px;font-family:sans-serif;" transform="translate(122.1296 249)" fill="#333" stroke="rgb(255,255,255)" stroke-width="2" paint-order="stroke" stroke-miterlimit="2">1.542</text>
<text dominant-baseline="central" text-anchor="start" style="font-size:12px;font-family:sans-serif;" transform="translate(124.0109 195)" fill="#333" stroke="rgb(255,255,255)" stroke-width="2" paint-order="stroke" stroke-miterlimit="2">1.627</text>
<text dominant-baseline="central" text-anchor="start" style="font-size:12px;font-family:sans-serif;" transform="translate(304.2427 141)" fill="#333" stroke="rgb(255,255,255)" stroke-width="2" paint-order="stroke" stroke-miterlimit="2">9.77</text>
<text dominant-baseline="central" text-anchor="start" style="font-size:12px;font-family:sans-serif;" transform="translate(418.5613 87)" fill="#333" stroke="rgb(255,255,255)" stroke-width="2" paint-order="stroke" stroke-miterlimit="2">14.935</text>
<text dominant-baseline="central" text-anchor="start" style="font-size:12px;font-family:sans-serif;" transform="translate(149.3093 317.6753)" fill="#333" stroke="rgb(255,255,255)" stroke-width="2" paint-order="stroke" stroke-miterlimit="2">2.77</text>
<text dominant-baseline="central" text-anchor="start" style="font-size:12px;font-family:sans-serif;" transform="translate(354.4189 263.6753)" fill="#333" stroke="rgb(255,255,255)" stroke-width="2" paint-order="stroke" stroke-miterlimit="2">12.037</text>
<text dominant-baseline="central" text-anchor="start" style="font-size:12px;font-family:sans-serif;" transform="translate(581.5291 209.6753)" fill="#333" stroke="rgb(255,255,255)" stroke-width="2" paint-order="stroke" stroke-miterlimit="2">22.298</text>
<text dominant-baseline="central" text-anchor="start" style="font-size:12px;font-family:sans-serif;" transform="translate(296.0533 155.6753)" fill="#333" stroke="rgb(255,255,255)" stroke-width="2" paint-order="stroke" stroke-miterlimit="2">9.4</text>
<text dominant-baseline="central" text-anchor="start" style="font-size:12px;font-family:sans-serif;" transform="translate(715.7456 101.6753)" fill="#333" stroke="rgb(255,255,255)" stroke-width="2" paint-order="stroke" stroke-miterlimit="2">28.362</text>
<path d="M-5 -5l430.2 0l0 24l-430.2 0Z" transform="translate(204.9 5)" fill="rgb(0,0,0)" fill-opacity="0" stroke="#ccc" stroke-width="0"></path>
<path d="M3.5 0L21.5 0A3.5 3.5 0 0 1 25 3.5L25 10.5A3.5 3.5 0 0 1 21.5 14L3.5 14A3.5 3.5 0 0 1 0 10.5L0 3.5A3.5 3.5 0 0 1 3.5 0" transform="translate(204.9 5)" fill="#5470c6"></path>
<text dominant-baseline="central" text-anchor="start" style="font-size:12px;font-family:sans-serif;" xml:space="preserve" x="30" y="7" transform="translate(204.9 5)" fill="#333">dev-server cold start</text>
<path d="M3.5 0L21.5 0A3.5 3.5 0 0 1 25 3.5L25 10.5A3.5 3.5 0 0 1 21.5 14L3.5 14A3.5 3.5 0 0 1 0 10.5L0 3.5A3.5 3.5 0 0 1 3.5 0" transform="translate(353.86 5)" fill="#91cc75"></path>
<text dominant-baseline="central" text-anchor="start" style="font-size:12px;font-family:sans-serif;" xml:space="preserve" x="30" y="7" transform="translate(353.86 5)" fill="#333">dev-server warm start</text>
<path d="M3.5 0L21.5 0A3.5 3.5 0 0 1 25 3.5L25 10.5A3.5 3.5 0 0 1 21.5 14L3.5 14A3.5 3.5 0 0 1 0 10.5L0 3.5A3.5 3.5 0 0 1 3.5 0" transform="translate(510.02 5)" fill="#fac858"></path>
<text dominant-baseline="central" text-anchor="start" style="font-size:12px;font-family:sans-serif;" xml:space="preserve" x="30" y="7" transform="translate(510.02 5)" fill="#333">production build</text>
</svg>